# xmcd
#
# Track frame offsets:
#	150
#	24237
#	44195
#	66117
#	84385
#	106432
#	122827
#	144570
#	162184
#	173882
#	200515
#	219157
#	237405
#	257582
#	274095
#	293447
#	312805
#
# Disc length: 4518 seconds
#
# Revision: 1
# Processed by: cddbd v1.5.2PL0 Copyright (c) Steve Scherf et al.
# Submitted via: EZCDAudioConverter 9.1.1.1
#
DISCID=f111a411
DTITLE=Various Artist - The Power Of Love 2 (17 pwer ballads)
DYEAR=1999
DGENRE=R&B
TTITLE0=Various Artist - Take A Bow
TTITLE1=Céline Dion - All By Myself
TTITLE2=Rod Stewart - I Don't Want To Talk About It
TTITLE3=George Benson - Nothin's Gonna Change My Love
TTITLE4=Bette Midler - Wind Beneath My Wings
TTITLE5=Billy Joel - Just The Way You Are
TTITLE6=Seal - Kiss From A Rose
TTITLE7=The Cars - Drive
TTITLE8=Bread - If
TTITLE9=Michael Jackson - Will You Be There
TTITLE10=Phil Collins and Marilyn Martin - Separate Lives
TTITLE11=Cyndi Lauper - Time After Time
TTITLE12=Rick Price - Heaven Knows
TTITLE13=Leo Sayer - More Than I Can Say
TTITLE14=Sade - Smooth Operator
TTITLE15=All-4-One - So Much In Love
TTITLE16=George Michael and Elton John - Don't Let The Sun Go Down On Me
EXTD=
EXTT0=
EXTT1=
EXTT2=
EXTT3=
EXTT4=
EXTT5=
EXTT6=
EXTT7=
EXTT8=
EXTT9=
EXTT10=
EXTT11=
EXTT12=
EXTT13=
EXTT14=
EXTT15=
EXTT16=
PLAYORDER=
